<svg xmlns="http://www.w3.org/2000/svg" xmlns:xlink="http://www.w3.org/1999/xlink"{% if include.width %} width="{{ include.width }}"{% endif %}{% if include.height %} height="{{ include.height }}"{% endif %}{% if include.class %} class="{{ include.class }}"{% endif %} style="enable-background:new 0 0 512 512;" version="1.1" viewBox="0 0 512 512" xml:space="preserve"><g id="_x33_46-typo3"><g><g><path d="M209.846,73.644c0-25.36,5.545-33.268,14.273-40.455c-71.361,8.729-153.299,34.91-181.022,68.179 c-5.543,7.906-9.549,21.357-9.549,38.094c0,106.271,109.661,346.538,189.031,346.538c37.272,0,99.906-61.094,150.631-142.722 c-7.189,2.361-11.913,2.361-18.996,2.361C295.48,345.639,209.846,141.822,209.846,73.644L209.846,73.644z M335.935,26.001 c-30.907,0-42.816,5.545-42.816,37.272c0,68.178,55.241,203.816,104.423,203.816c27.006,0,80.912-102.369,80.912-187.183 C478.453,37.912,409.659,26.001,335.935,26.001z" style="fill:#FF8700;"/></g></g></g><g id="Layer_1"/></svg>
