<?xml version="1.0" encoding="utf-8"?>
<!-- Generator: Adobe Illustrator 21.1.0, SVG Export Plug-In . SVG Version: 6.00 Build 0)  -->
<svg version="1.1" id="svg7657" xmlns:svg="http://www.w3.org/2000/svg"
	 xmlns="http://www.w3.org/2000/svg" xmlns:xlink="http://www.w3.org/1999/xlink" x="0px" y="0px" viewBox="0 0 330 460"
	 style="enable-background:new 0 0 330 460;" xml:space="preserve">
<style type="text/css">
	.st0{fill:#FFD500;}
</style>
<path id="path7306" class="st0" d="M165,30c-9.3,10.6-15,24.4-15,39.6c0.6,33.4,4.6,66.7,5,100c0.7,31.1-8.6,60.3-19.9,88.8
	c-3.8,7.9-7.9,15.6-12,23.3l-12-2.4c-10.8-2.2-17.9-12.7-15.7-23.5c1.9-9.5,10.2-16.1,19.5-16.1l4.4,0.5l-9.8-81.6
	c-3.2-36.3-21.9-68.2-49.5-88.9c-4.7-3.6-9.8-6.8-15-9.7v289.7h66.9c5,27.1,19.9,50.8,40.9,67c5,3.4,9.2,8,12.2,13.3
	c3-5.3,7.2-9.8,12.2-13.3c21-16.2,35.9-39.9,40.9-67H285V59.9c-5.2,2.9-10.3,6.1-15,9.7c-27.6,20.7-46.3,52.6-49.5,88.9l-9.8,81.6
	l4.4-0.5c9.3,0,17.6,6.6,19.5,16.1c2.2,10.8-4.9,21.4-15.7,23.5l-12,2.4c-4.1-7.7-8.2-15.4-12-23.3c-11.3-28.5-20.7-57.7-19.9-88.8
	c0.4-33.4,4.4-66.7,5-100C180,54.4,174.3,40.6,165,30z M65,101.7c12.9,15.2,21.6,34.1,24.2,54.9l8,67.3c-10.2,5.1-18,14.5-20.9,25.8
	H65C65,249.7,65,101.7,65,101.7z M265,101.7v148h-11.3c-2.9-11.3-10.7-20.7-20.9-25.8l8-67.3C243.4,135.8,252.1,116.8,265,101.7z
	 M165,236.9c5.4,17.6,12.8,34.3,22,49.8c-8.7,2.7-16.3,7.8-22,14.8c-5.6-6.9-13.2-12.1-22-14.8C152.2,271.2,159.6,254.5,165,236.9z
	 M65,269.7h11.3c3.6,13.8,14.3,24.7,28,28.5l9.6,2.2c-2.6,9.3-4,19.2-4,29.3H65V269.7z M253.7,269.7H265v60h-45
	c0-10.1-1.4-20-4-29.3l9.6-2.2C239.3,294.4,250.1,283.5,253.7,269.7L253.7,269.7z M133.5,305c12.1,1.7,21.5,12.1,21.5,24.7h-25
	C130,321.1,131.3,312.8,133.5,305z M196.5,305c2.2,7.9,3.5,16.1,3.5,24.7h-25C175,317.1,184.4,306.7,196.5,305z M132.3,349.7H155
	v42.1C144,380.3,136,365.8,132.3,349.7z M175,349.7h22.7c-3.7,16.1-11.7,30.6-22.7,42.1V349.7z"/>
</svg>
